<svg width="86" height="91" viewBox="0 0 86 91" fill="none" xmlns="http://www.w3.org/2000/svg">
<path d="M77.0369 27.5044C68.4126 -4.6931 21 -10.5 8.04224 26.9295L8.61719 27.5044L12.0669 22.3298L16.6666 17.1552L18.9664 14.8554L22.4161 12.5555L25.2909 10.8306L31.0405 8.53089L35.6401 7.38093L41.3897 6.80597H44.8394L48.8641 7.38093L52.3138 7.95589L56.9135 9.68075L59.7883 10.8306L62.663 12.5555L66.6877 15.4303L68.4126 17.1552L69.5625 18.3051L70.7124 19.455L73.0122 22.3298L75.887 26.3545L77.0369 27.5044Z" fill="black"/>
<path d="M43 82L43 88" stroke="white" stroke-width="2" stroke-linecap="round" stroke-linejoin="round"/>
<g filter="url(#filter0_di_19_5)">
<circle cx="42.9471" cy="44.9471" r="37.9471" fill="black"/>
</g>
<line x1="34" y1="45.7531" x2="34" y2="63.3016" stroke="white" stroke-width="2" stroke-linecap="round" stroke-linejoin="round"/>
<path d="M46 55L50.0533 59.2383L54.1066 63.4766" stroke="white" stroke-width="2" stroke-linecap="round" stroke-linejoin="round"/>
<circle cx="43.3492" cy="45.3492" r="9.3492" stroke="white" stroke-width="2" stroke-linejoin="round"/>
<path d="M7.43313 30.348C10.2822 23.4046 15.1262 17.4619 21.3527 13.2715C27.5792 9.08109 34.9084 6.83116 42.4136 6.80621C49.9188 6.78126 57.2628 8.98242 63.517 13.1313C69.7712 17.2802 74.6546 23.1906 77.5498 30.1149" stroke="white" stroke-width="2" stroke-linecap="round" stroke-linejoin="round"/>
<path d="M80.4867 44.7531C80.4867 65.7107 63.4972 82.7002 42.5396 82.7002C21.582 82.7002 4.59253 65.7107 4.59253 44.7531" stroke="white" stroke-width="2" stroke-linecap="round" stroke-linejoin="round"/>
<path d="M78.1869 36.7037C78.1869 17.0163 62.227 1.05646 42.5396 1.05646C22.8522 1.05646 6.89233 17.0163 6.89233 36.7037" stroke="white" stroke-width="2" stroke-linecap="round" stroke-linejoin="round"/>
<defs>
<filter id="filter0_di_19_5" x="0" y="5" width="85.894" height="85.8942" filterUnits="userSpaceOnUse" color-interpolation-filters="sRGB">
<feFlood flood-opacity="0" result="BackgroundImageFix"/>
<feColorMatrix in="SourceAlpha" type="matrix" values="0 0 0 0 0 0 0 0 0 0 0 0 0 0 0 0 0 0 127 0" result="hardAlpha"/>
<feOffset dy="3"/>
<feGaussianBlur stdDeviation="2.5"/>
<feComposite in2="hardAlpha" operator="out"/>
<feColorMatrix type="matrix" values="0 0 0 0 1 0 0 0 0 1 0 0 0 0 1 0 0 0 0.4 0"/>
<feBlend mode="normal" in2="BackgroundImageFix" result="effect1_dropShadow_19_5"/>
<feBlend mode="normal" in="SourceGraphic" in2="effect1_dropShadow_19_5" result="shape"/>
<feColorMatrix in="SourceAlpha" type="matrix" values="0 0 0 0 0 0 0 0 0 0 0 0 0 0 0 0 0 0 127 0" result="hardAlpha"/>
<feOffset dy="3"/>
<feGaussianBlur stdDeviation="2.5"/>
<feComposite in2="hardAlpha" operator="arithmetic" k2="-1" k3="1"/>
<feColorMatrix type="matrix" values="0 0 0 0 1 0 0 0 0 1 0 0 0 0 1 0 0 0 0.4 0"/>
<feBlend mode="normal" in2="shape" result="effect2_innerShadow_19_5"/>
</filter>
</defs>
</svg>
